<svg xmlns="http://www.w3.org/2000/svg" width="30" height="30" viewBox="0 0 30 30">
    <g fill="#fff" fill-rule="evenodd">
        <path d="M12.65 14.585l4.464-3.826a.999.999 0 0 0 0-1.518L12.65 5.415C12 4.859 11 5.32 11 6.174V9c-4.411 0-8 3.589-8 8s3.589 8 8 8a1 1 0 0 0 0-2c-3.308 0-6-2.691-6-6s2.692-6 6-6v2.826c0 .854 1.002 1.315 1.65.759"/>
        <path d="M19 5a1 1 0 0 0 0 2c3.309 0 6 2.691 6 6s-2.691 6-6 6v-2.826c0-.854-1.002-1.315-1.651-.759l-4.463 3.826a.999.999 0 0 0 0 1.518l4.463 3.826c.649.556 1.651.095 1.651-.759V21c4.411 0 8-3.589 8-8s-3.589-8-8-8"/>
    </g>
</svg>
