<svg xmlns="http://www.w3.org/2000/svg" width="107" height="32" viewBox="0 0 107 32">
    <defs>
        <linearGradient id="a" x1="50.04%" x2="50.04%" y1="-23.559%" y2="126.866%">
            <stop offset="0%" stop-color="#FF0029"/>
            <stop offset="100%" stop-color="#AB00FF"/>
        </linearGradient>
        <linearGradient id="b" x1="-25.069%" x2="100.649%" y1="6.884%" y2="143.482%">
            <stop offset="0%" stop-color="#FF9100"/>
            <stop offset="51.53%" stop-color="#FF0029"/>
            <stop offset="100%" stop-color="#AB00FF"/>
        </linearGradient>
    </defs>
    <g fill="none" fill-rule="evenodd">
        <path fill="url(#a)" d="M7.61 31.256l8.913-9.088 8.884 9.088v-5.441l-8.884-9.087-8.912 9.087z"/>
        <path fill="#FF8F1C" d="M.17 12.85h12.59l3.763 3.878H3.933z"/>
        <path fill="url(#b)" d="M32.876 12.85h-12.59v-9L16.523 0v16.728h12.59z"/>
        <g fill="#FFF">
            <path d="M106.212 19.882c0-4.34-2.547-7.264-6.366-7.264-3.735 0-6.564 2.981-6.564 6.917 0 4.08 2.773 6.946 6.762 6.946 2.065 0 3.99-.695 5.206-1.824l.141-.115-1.669-2.518-.17.173c-.792.782-2.207 1.216-3.14 1.216-1.726 0-3-.984-3.31-2.547h9.11v-.984zm-3.537-1.736h-5.602c.226-1.187 1.075-2.402 2.801-2.402.934-.03 2.547.492 2.801 2.402zM50.927 22.487h-7.214V7.757h-3.707v18.347h12.336zM92.886 26.104l-5.178-7.061 5.036-6.049h-4.47l-4.102 5.065V7.756h-3.707v18.348h3.707v-6.048l4.611 6.048zM78.626 26.104l-5.177-7.061 5.036-6.049h-4.499l-4.102 5.065V7.756h-3.707v18.348h3.707v-6.048l4.611 6.048zM60.49 12.82l-2.999 7.844-2.942-7.843h-3.99l5.037 12.734-2.01 5.209h3.82l7.159-17.943z"/>
        </g>
    </g>
</svg>
